<?xml version="1.0" encoding="UTF-8" standalone="no"?>
<svg
   xmlns:dc="http://purl.org/dc/elements/1.1/"
   xmlns:cc="http://creativecommons.org/ns#"
   xmlns:rdf="http://www.w3.org/1999/02/22-rdf-syntax-ns#"
   xmlns:svg="http://www.w3.org/2000/svg"
   xmlns="http://www.w3.org/2000/svg"
   xmlns:xlink="http://www.w3.org/1999/xlink"
   xmlns:sodipodi="http://sodipodi.sourceforge.net/DTD/sodipodi-0.dtd"
   xmlns:inkscape="http://www.inkscape.org/namespaces/inkscape"
   width="1280"
   height="420"
   id="svg3386"
   version="1.1"
   inkscape:version="0.92.1 r15371"
   sodipodi:docname="logo-subtitle-black.svg"
   inkscape:export-filename="/home/spooky/Documents/Tokumei/assets/png/1280x420/logo-subtitle-black.png"
   inkscape:export-xdpi="96"
   inkscape:export-ydpi="96">
  <metadata
     id="metadata3396">
    <rdf:RDF>
      <cc:Work
         rdf:about="">
        <dc:format>image/svg+xml</dc:format>
        <dc:type
           rdf:resource="http://purl.org/dc/dcmitype/StillImage" />
        <dc:title></dc:title>
      </cc:Work>
    </rdf:RDF>
  </metadata>
  <sodipodi:namedview
     pagecolor="#aaaaaa"
     bordercolor="#666666"
     borderopacity="1"
     objecttolerance="10"
     gridtolerance="10"
     guidetolerance="10"
     inkscape:pageopacity="0"
     inkscape:pageshadow="2"
     inkscape:window-width="1214"
     inkscape:window-height="693"
     id="namedview3394"
     showgrid="false"
     inkscape:zoom="0.70710678"
     inkscape:cx="641.02169"
     inkscape:cy="404.3771"
     inkscape:window-x="0"
     inkscape:window-y="0"
     inkscape:window-maximized="1"
     inkscape:current-layer="svg3386"
     fit-margin-top="0"
     fit-margin-left="0"
     fit-margin-right="0"
     fit-margin-bottom="0" />
  <defs
     id="defs3388">
    <marker
       id="se_marker_start_path10416"
       refY="50"
       refX="50"
       se_type="rightarrow"
       orient="auto"
       markerUnits="strokeWidth"
       markerWidth="5"
       viewBox="0 0 100 100"
       markerHeight="5">
      <path
         d="M 106.66667,53.333333 0,96 32,53.333333 0,10.666667 Z"
         id="path3391"
         inkscape:connector-curvature="0"
         style="stroke:#000000;stroke-width:10.66666698" />
    </marker>
    <linearGradient
       gradientUnits="userSpaceOnUse"
       gradientTransform="scale(1.1399348,0.87724319)"
       id="linearGradient3969"
       y2="42.8405"
       xlink:href="#linearGradient3941"
       x2="13.998286"
       y1="38.539715"
       x1="13.746157" />
    <linearGradient
       id="linearGradient3941">
      <stop
         id="stop3943"
         offset="0" />
      <stop
         id="stop3945"
         stop-opacity="0"
         offset="1" />
    </linearGradient>
    <linearGradient
       id="linearGradient9115"
       y2="0.55352998"
       xlink:href="#linearGradient3941"
       x2="0.5"
       y1="-0.030702"
       x1="0.46575001" />
    <linearGradient
       gradientUnits="userSpaceOnUse"
       gradientTransform="scale(1.1399188,0.8772555)"
       id="linearGradient4003"
       y2="39.654915"
       xlink:href="#linearGradient3941"
       x2="213.5267"
       y1="35.354115"
       x1="213.27464" />
    <linearGradient
       id="linearGradient9146"
       y2="0.55352998"
       xlink:href="#linearGradient3941"
       x2="0.5"
       y1="-0.030703001"
       x1="0.46575999" />
    <linearGradient
       inkscape:collect="always"
       xlink:href="#linearGradient5522"
       id="linearGradient5528"
       x1="98.994949"
       y1="66.952705"
       x2="325.97623"
       y2="340.60303"
       gradientUnits="userSpaceOnUse"
       gradientTransform="matrix(1.0666667,0,0,1.0666667,0,-3.4097831)" />
    <linearGradient
       inkscape:collect="always"
       id="linearGradient5522">
      <stop
         style="stop-color:#4e342e;stop-opacity:1"
         offset="0"
         id="stop5524" />
      <stop
         style="stop-color:#4e342e;stop-opacity:1"
         offset="1"
         id="stop5526" />
    </linearGradient>
    <filter
       inkscape:collect="always"
       style="color-interpolation-filters:sRGB"
       id="filter6106"
       x="-0.20668891"
       width="1.4133778"
       y="-0.17926037"
       height="1.3585207">
      <feGaussianBlur
         inkscape:collect="always"
         stdDeviation="18.370851"
         id="feGaussianBlur6108" />
    </filter>
    <linearGradient
       inkscape:collect="always"
       xlink:href="#linearGradient5514"
       id="linearGradient5520"
       x1="99.702065"
       y1="71.902458"
       x2="309.00568"
       y2="351.20963"
       gradientUnits="userSpaceOnUse"
       gradientTransform="matrix(1.0666667,0,0,1.0666667,0,-3.4097831)" />
    <linearGradient
       inkscape:collect="always"
       id="linearGradient5514">
      <stop
         style="stop-color:#ffb724;stop-opacity:1"
         offset="0"
         id="stop5516" />
      <stop
         style="stop-color:#ffab00;stop-opacity:1"
         offset="1"
         id="stop5518" />
    </linearGradient>
    <linearGradient
       inkscape:collect="always"
       xlink:href="#linearGradient5498"
       id="linearGradient5504"
       x1="102.53048"
       y1="63.417171"
       x2="331.63309"
       y2="339.89594"
       gradientUnits="userSpaceOnUse"
       gradientTransform="matrix(1.0666667,0,0,1.0666667,0,-3.4097831)" />
    <linearGradient
       inkscape:collect="always"
       id="linearGradient5498">
      <stop
         style="stop-color:#fbc33c;stop-opacity:1"
         offset="0"
         id="stop5500" />
      <stop
         style="stop-color:#fbc02d;stop-opacity:1"
         offset="1"
         id="stop5502" />
    </linearGradient>
    <linearGradient
       inkscape:collect="always"
       xlink:href="#linearGradient5482"
       id="linearGradient5488"
       x1="97.580734"
       y1="65.53849"
       x2="325.26913"
       y2="344.84567"
       gradientUnits="userSpaceOnUse"
       gradientTransform="matrix(1.0666667,0,0,1.0666667,0,-3.4097831)" />
    <linearGradient
       inkscape:collect="always"
       id="linearGradient5482">
      <stop
         style="stop-color:#1a1a1a;stop-opacity:1"
         offset="0"
         id="stop5484" />
      <stop
         style="stop-color:#000000;stop-opacity:1"
         offset="1"
         id="stop5486" />
    </linearGradient>
  </defs>
  <g
     id="g5211"
     transform="translate(0,-1.0386802)">
    <g
       id="g5197">
      <g
         id="g5175">
        <path
           sodipodi:nodetypes="cccccc"
           inkscape:connector-curvature="0"
           id="path4-2"
           d="m 320.67055,188.99392 c -54.23953,36.35166 -125.26395,-40.81069 -161.92369,95.61055 -10.04341,20.66037 -22.47268,62.88709 -24.05285,87.42191 30.09384,18.29946 64.67928,27.69097 99.99611,27.77593 53.28553,-0.0888 104.18425,-21.77191 140.43751,-60.43483 -2.74572,-66.34206 -14.64631,-146.75568 -54.45708,-150.37356 z"
           style="fill:url(#linearGradient5528);fill-opacity:1;stroke-width:1.06666672" />
        <g
           id="g5169">
          <path
             transform="matrix(1.0666667,0,0,1.0666667,0,-3.4097831)"
             sodipodi:nodetypes="cccccccccccccccc"
             style="opacity:0.394;fill:#000000;fill-opacity:1;filter:url(#filter6106)"
             inkscape:connector-curvature="0"
             id="path4664"
             d="m 316.24769,150.69129 c -22.46113,0.0651 -24.69506,8.15538 -24.69506,8.15538 0,0 41.29964,5.24411 46.39876,60.08173 -15.66907,-13.38271 -17.97889,-8.78621 -17.97889,-8.78621 0,0 23.6822,29.94476 0.7993,79.6012 -13.31339,-14.27632 -30.87872,-26.28932 -30.87872,-26.28932 0,0 16.23534,33.98119 -7.74871,66.7729 -17.1749,-19.51985 -36.06422,-30.84043 -36.43317,-29.66437 0,0 -4.01282,41.10462 -23.04229,58.54403 -12.40071,-43.18724 -25.23743,-39.62722 -26.38766,-37.55517 0,0 -8.691,17.25621 -32.30582,29.46632 6.39742,-20.42957 -4.81033,-47.78074 -7.81383,-47.37365 0,0 -5.41003,4.44936 -13.68093,22.08182 -24.97171,-71.43935 15.60693,-60.82218 0.67481,-95.51025 -0.24611,0.10755 -14.65238,-13.86821 -17.27396,-19.59044 C 109.7539,105.46397 254.3878,85.24503 316.24769,150.69129 Z" />
          <path
             d="m 337.33087,114.66093 c -23.95854,0.0694 -26.3414,8.69907 -26.3414,8.69907 0,0 44.05295,5.59372 49.49201,64.08718 -16.71367,-14.27489 -19.17748,-9.37196 -19.17748,-9.37196 0,0 25.26101,31.94108 0.85259,84.90795 -14.20095,-15.22808 -32.9373,-28.04194 -32.9373,-28.04194 0,0 17.31769,36.2466 -8.2653,71.22442 -18.31989,-20.82117 -38.4685,-32.89645 -38.86204,-31.64199 0,0 -4.28034,43.84493 -24.57845,62.44697 -13.22742,-46.06639 -26.91992,-42.26904 -28.14683,-40.05885 0,0 -9.2704,18.40662 -34.45954,31.43074 6.82391,-21.79154 -5.13102,-50.96612 -8.33476,-50.53189 0,0 -5.7707,4.74598 -14.59299,23.55394 -26.63649,-76.20198 16.64739,-64.877 0.7198,-101.8776 -0.26252,0.11472 -15.62921,-14.79276 -18.42556,-20.89647 C 117.07083,66.418448 271.34699,44.851579 337.33087,114.66093 Z"
             id="path8-9"
             inkscape:connector-curvature="0"
             style="fill:#ffffff;fill-opacity:1;stroke-width:1.06666672"
             sodipodi:nodetypes="cccccccccccccccc" />
        </g>
      </g>
      <g
         id="g5185">
        <path
           style="fill:url(#linearGradient5520);fill-opacity:1;stroke-width:1.06666672"
           inkscape:connector-curvature="0"
           id="path16-1"
           d="m 146.69847,230.72157 c 37.62855,-24.56589 37.6386,-16.1552 43.76245,-31.98642 -43.40106,-7.60195 -91.55933,7.40767 -69.56298,53.83865 0,0 13.25768,-13.66362 25.80053,-21.85223 z"
           sodipodi:nodetypes="sccs" />
        <g
           id="g5179">
          <path
             sodipodi:nodetypes="ccccc"
             d="m 162.02771,167.03267 c -27.57609,8.03793 -41.23412,23.07189 -51.36231,48.4438 -7.14298,26.0459 10.24245,37.05843 10.24245,37.05843 27.09064,-70.258 98.85738,-40.63269 57.25459,-65.08735 0,0 -8.12467,-18.5241 -16.13473,-20.41488"
             id="path18-2"
             inkscape:connector-curvature="0"
             style="fill:url(#linearGradient5504);fill-opacity:1;stroke-width:1.06666672" />
          <path
             d="m 156.43333,197.89662 c 5.8678,6.26754 2.73403,9.20145 -3.13377,2.9339 -5.93359,-6.76222 -2.73402,-9.20143 3.13377,-2.9339"
             id="path20-7"
             inkscape:connector-curvature="0"
             style="fill:#000000;fill-opacity:0.66666667;stroke-width:1.06666672" />
        </g>
      </g>
    </g>
    <path
       sodipodi:nodetypes="scccccccccccccccccsccccc"
       style="fill:url(#linearGradient5488);fill-opacity:1;stroke-width:1.06666672"
       inkscape:connector-curvature="0"
       id="path4144-0"
       d="m 196.17658,130.57678 c -8.34964,-0.8514 -16.67681,0.063 -24.98479,0.8827 -4.58868,0.45078 -9.1808,0.91241 -13.76026,1.46987 -1.3968,0.17132 -2.74208,0.14939 -4.06255,0.0216 -1.30589,-0.22748 -2.60551,-0.56604 -3.90431,-1.10427 -3.40927,-1.40858 -7.26567,-2.62322 -10.70318,-3.95936 -9.77828,18.10158 -13.19731,39.8911 -4.96788,53.18207 3.14683,-2.13394 9.12994,-5.08564 13.76656,-5.47522 5.83036,2.15942 13.5909,12.08245 13.5909,12.08245 1.86399,2.49734 4.28612,4.60043 6.52765,6.79994 2.25392,2.21343 4.92628,3.87747 7.52743,5.64491 2.61898,1.77591 5.29302,3.50215 8.41762,4.12262 5.60546,1.10978 11.19317,0.79077 16.79509,-0.39872 9.2279,-1.96004 15.20865,-8.12375 20.89913,-15.07386 3.51654,-4.29172 6.75054,-8.762 9.77548,-13.34751 3.40403,-5.16077 8.32879,-13.76558 10.53483,-19.56521 1.85217,-4.87607 -1.52122,-4.89516 -6.79256,-8.76114 -11.58559,-8.49511 -24.08133,-15.02966 -38.65917,-16.52081 z m 15.5733,30.9318 c 0,0 -7.59694,12.01535 -19.41614,14.31881 -11.81728,2.30204 -23.38453,-5.98371 -23.38453,-5.98371 0,0 7.60916,-12.01551 19.42774,-14.31739 8.31034,-1.1489 16.29285,1.26237 23.37293,5.98229 z" />
  </g>
  <path
     style="color:#000000;font-style:normal;font-variant:normal;font-weight:normal;font-stretch:normal;font-size:medium;line-height:normal;font-family:sans-serif;text-indent:0;text-align:start;text-decoration:none;text-decoration-line:none;text-decoration-style:solid;text-decoration-color:#000000;letter-spacing:normal;word-spacing:normal;text-transform:none;writing-mode:lr-tb;direction:ltr;baseline-shift:baseline;text-anchor:start;white-space:normal;clip-rule:nonzero;display:inline;overflow:visible;visibility:visible;opacity:1;isolation:auto;mix-blend-mode:normal;color-interpolation:sRGB;color-interpolation-filters:linearRGB;solid-color:#000000;solid-opacity:1;fill:#000000;fill-opacity:1;fill-rule:nonzero;stroke:none;stroke-width:2.13315511;stroke-linecap:butt;stroke-linejoin:round;stroke-miterlimit:4;stroke-dasharray:none;stroke-dashoffset:0;stroke-opacity:1;color-rendering:auto;image-rendering:auto;shape-rendering:auto;text-rendering:auto;enable-background:accumulate"
     d="m 234.66667,16.884917 c -105.96762,0 -192.000003,86.032383 -192.000003,192.000003 0,105.96762 86.032383,192 192.000003,192 105.96761,0 192,-86.03238 192,-192 0,-105.96762 -86.03239,-192.000003 -192,-192.000003 z m 0,12 c 99.48288,0 180,80.517123 180,180.000003 0,99.48288 -80.51712,180 -180,180 -99.48288,0 -180.000003,-80.51712 -180.000003,-180 0,-99.48288 80.517123,-180.000003 180.000003,-180.000003 z"
     id="circle4210-9"
     inkscape:connector-curvature="0" />
  <g
     id="g7269"
     style="fill:#000000"
     transform="translate(0,-3.333328)">
    <g
       transform="translate(0,-15.411155)"
       style="font-style:normal;font-weight:normal;font-size:40px;line-height:125%;font-family:sans-serif;letter-spacing:0px;word-spacing:0px;fill:#000000;fill-opacity:1;stroke:none;stroke-width:1px;stroke-linecap:butt;stroke-linejoin:miter;stroke-opacity:1"
       id="text6339">
      <path
         d="m 528.27429,149.31699 h -38.016 v -13.44 h 92.16 v 13.44 h -38.016 v 112.512 h -16.128 z"
         style="font-style:normal;font-variant:normal;font-weight:normal;font-stretch:normal;font-size:180px;font-family:'Source Sans Pro';-inkscape-font-specification:'Source Sans Pro Ultra-Light';fill:#000000;fill-opacity:1;stroke-width:1.06666672px"
         id="path4164"
         inkscape:connector-curvature="0" />
      <path
         d="m 583.71429,215.36499 q 0,-11.712 3.456,-20.736 3.648,-9.216 9.6,-15.552 5.952,-6.336 13.632,-9.6 7.872,-3.264 16.512,-3.264 8.64,0 16.32,3.264 7.872,3.264 13.824,9.6 5.952,6.336 9.408,15.552 3.648,9.024 3.648,20.736 0,11.52 -3.648,20.736 -3.456,9.024 -9.408,15.36 -5.952,6.144 -13.824,9.408 -7.68,3.264 -16.32,3.264 -8.64,0 -16.512,-3.264 -7.68,-3.264 -13.632,-9.408 -5.952,-6.336 -9.6,-15.36 -3.456,-9.216 -3.456,-20.736 z m 16.32,0 q 0,8.064 1.92,14.592 1.92,6.528 5.376,11.328 3.648,4.608 8.64,7.296 4.992,2.496 10.944,2.496 5.952,0 10.944,-2.496 4.992,-2.688 8.448,-7.296 3.648,-4.8 5.568,-11.328 1.92,-6.528 1.92,-14.592 0,-8.064 -1.92,-14.592 -1.92,-6.72 -5.568,-11.52 -3.456,-4.8 -8.448,-7.296 -4.992,-2.688 -10.944,-2.688 -5.952,0 -10.944,2.688 -4.992,2.496 -8.64,7.296 -3.456,4.8 -5.376,11.52 -1.92,6.528 -1.92,14.592 z"
         style="font-style:normal;font-variant:normal;font-weight:normal;font-stretch:normal;font-size:180px;font-family:'Source Sans Pro';-inkscape-font-specification:'Source Sans Pro Ultra-Light';fill:#000000;fill-opacity:1;stroke-width:1.06666672px"
         id="path4166"
         inkscape:connector-curvature="0" />
      <path
         d="m 694.87629,125.12499 h 15.552 v 92.544 h 0.576 l 39.744,-49.152 h 17.472 l -31.296,37.44 35.52,55.872 h -17.28 l -27.264,-44.928 -17.472,20.352 v 24.576 h -15.552 z"
         style="font-style:normal;font-variant:normal;font-weight:normal;font-stretch:normal;font-size:180px;font-family:'Source Sans Pro';-inkscape-font-specification:'Source Sans Pro Ultra-Light';fill:#000000;fill-opacity:1;stroke-width:1.06666672px"
         id="path4168"
         inkscape:connector-curvature="0" />
      <path
         d="m 785.78229,168.51699 h 15.936 v 57.024 q 0,13.248 4.032,19.2 4.224,5.76 13.44,5.76 7.296,0 12.864,-3.648 5.568,-3.84 12.288,-12.096 v -66.24 h 15.744 v 93.312 h -13.056 l -1.344,-14.592 h -0.576 q -6.528,7.68 -13.824,12.288 -7.104,4.608 -16.896,4.608 -14.976,0 -21.888,-9.216 -6.72,-9.216 -6.72,-27.264 z"
         style="font-style:normal;font-variant:normal;font-weight:normal;font-stretch:normal;font-size:180px;font-family:'Source Sans Pro';-inkscape-font-specification:'Source Sans Pro Ultra-Light';fill:#000000;fill-opacity:1;stroke-width:1.06666672px"
         id="path4170"
         inkscape:connector-curvature="0" />
      <path
         d="m 891.7513,168.51699 h 13.056 l 1.344,13.44 h 0.576 q 6.144,-6.72 13.248,-11.136 7.296,-4.608 15.744,-4.608 10.752,0 16.704,4.8 6.144,4.608 9.024,13.056 7.296,-8.064 14.592,-12.864 7.488,-4.992 16.128,-4.992 14.4,0 21.312,9.216 7.104,9.216 7.104,27.264 v 59.136 h -15.744 v -57.024 q 0,-13.248 -4.224,-19.008 -4.224,-5.952 -13.056,-5.952 -10.56,0 -23.424,14.4 v 67.584 h -15.744 v -57.024 q 0,-13.248 -4.224,-19.008 -4.224,-5.952 -13.248,-5.952 -10.56,0 -23.424,14.4 v 67.584 h -15.744 z"
         style="font-style:normal;font-variant:normal;font-weight:normal;font-stretch:normal;font-size:180px;font-family:'Source Sans Pro';-inkscape-font-specification:'Source Sans Pro Ultra-Light';fill:#000000;fill-opacity:1;stroke-width:1.06666672px"
         id="path4172"
         inkscape:connector-curvature="0" />
      <path
         d="m 1043.8393,215.36499 q 0,-11.52 3.456,-20.544 3.648,-9.216 9.408,-15.552 5.952,-6.336 13.44,-9.6 7.488,-3.456 15.552,-3.456 8.832,0 15.744,3.072 7.104,3.072 11.712,8.832 4.8,5.76 7.296,13.824 2.496,8.064 2.496,18.048 0,5.184 -0.576,8.64 h -62.976 q 0.96,15.168 9.216,24 8.448,8.832 21.888,8.832 6.72,0 12.288,-1.92 5.76,-2.112 10.944,-5.376 l 5.568,10.368 q -6.144,3.84 -13.632,6.72 -7.488,2.88 -17.088,2.88 -9.408,0 -17.664,-3.264 -8.064,-3.456 -14.208,-9.6 -5.952,-6.336 -9.408,-15.36 -3.456,-9.024 -3.456,-20.544 z m 65.28,-7.104 q 0,-14.4 -6.144,-21.888 -5.952,-7.68 -16.896,-7.68 -4.992,0 -9.6,2.112 -4.416,1.92 -8.064,5.76 -3.648,3.648 -6.144,9.216 -2.304,5.376 -3.072,12.48 z"
         style="font-style:normal;font-variant:normal;font-weight:normal;font-stretch:normal;font-size:180px;font-family:'Source Sans Pro';-inkscape-font-specification:'Source Sans Pro Ultra-Light';fill:#000000;fill-opacity:1;stroke-width:1.06666672px"
         id="path4174"
         inkscape:connector-curvature="0" />
      <path
         d="m 1154.0653,149.31699 q -4.608,0 -7.872,-2.88 -3.072,-2.88 -3.072,-7.296 0,-4.608 3.072,-7.296 3.264,-2.88 7.872,-2.88 4.608,0 7.68,2.88 3.264,2.688 3.264,7.296 0,4.416 -3.264,7.296 -3.072,2.88 -7.68,2.88 z m -8.064,19.2 h 15.744 v 93.312 h -15.744 z"
         style="font-style:normal;font-variant:normal;font-weight:normal;font-stretch:normal;font-size:180px;font-family:'Source Sans Pro';-inkscape-font-specification:'Source Sans Pro Ultra-Light';fill:#000000;fill-opacity:1;stroke-width:1.06666672px"
         id="path4176"
         inkscape:connector-curvature="0" />
    </g>
    <g
       transform="translate(-9.1498592,11.023041)"
       style="font-style:normal;font-weight:normal;font-size:40px;line-height:125%;font-family:sans-serif;letter-spacing:0px;word-spacing:0px;fill:#000000;fill-opacity:1;stroke:none;stroke-width:1px;stroke-linecap:butt;stroke-linejoin:miter;stroke-opacity:1"
       id="flowRoot3440">
      <path
         d="m 549.68558,281.05245 -1.57067,-5.06667 q -0.912,-2.78667 -1.72266,-5.52267 -0.81067,-2.78666 -1.62134,-5.67466 h -0.20266 q -0.76,2.888 -1.57067,5.67466 -0.81067,2.736 -1.72267,5.52267 l -1.57066,5.06667 z m 1.064,3.39466 h -12.10933 l -3.192,10.13334 h -4.30667 l 11.248,-33.23734 h 4.76267 l 11.248,33.23734 h -4.50934 z"
         style="font-style:normal;font-variant:normal;font-weight:normal;font-stretch:normal;font-size:47.5px;font-family:'Source Sans Pro';-inkscape-font-specification:'Source Sans Pro';fill:#000000;fill-opacity:1;stroke-width:1.06666672px"
         id="path4179"
         inkscape:connector-curvature="0" />
      <path
         d="m 562.75362,269.95645 h 3.44533 l 0.35467,3.54666 h 0.152 q 1.77333,-1.77333 3.69867,-2.93866 1.976,-1.216 4.56,-1.216 3.90133,0 5.67466,2.432 1.824,2.432 1.824,7.19466 v 15.60534 h -4.15466 v -15.048 q 0,-3.496 -1.11467,-5.016 -1.11467,-1.57067 -3.54667,-1.57067 -1.92533,0 -3.39466,0.96267 -1.46934,0.96266 -3.344,2.83733 v 17.83467 h -4.15467 z"
         style="font-style:normal;font-variant:normal;font-weight:normal;font-stretch:normal;font-size:47.5px;font-family:'Source Sans Pro';-inkscape-font-specification:'Source Sans Pro';fill:#000000;fill-opacity:1;stroke-width:1.06666672px"
         id="path4181"
         inkscape:connector-curvature="0" />
      <path
         d="m 588.63796,282.31911 q 0,-3.09066 0.912,-5.472 0.96267,-2.432 2.53334,-4.104 1.57066,-1.672 3.59733,-2.53333 2.07733,-0.86133 4.35733,-0.86133 2.28,0 4.30667,0.86133 2.07733,0.86133 3.648,2.53333 1.57067,1.672 2.48267,4.104 0.96266,2.38134 0.96266,5.472 0,3.04 -0.96266,5.472 -0.912,2.38134 -2.48267,4.05334 -1.57067,1.62133 -3.648,2.48266 -2.02667,0.86134 -4.30667,0.86134 -2.28,0 -4.35733,-0.86134 -2.02667,-0.86133 -3.59733,-2.48266 -1.57067,-1.672 -2.53334,-4.05334 -0.912,-2.432 -0.912,-5.472 z m 4.30667,0 q 0,2.128 0.50667,3.85067 0.50666,1.72267 1.41866,2.98933 0.96267,1.216 2.28,1.92534 1.31734,0.65866 2.888,0.65866 1.57067,0 2.888,-0.65866 1.31734,-0.70934 2.22934,-1.92534 0.96266,-1.26666 1.46933,-2.98933 0.50667,-1.72267 0.50667,-3.85067 0,-2.128 -0.50667,-3.85066 -0.50667,-1.77334 -1.46933,-3.04 -0.912,-1.26667 -2.22934,-1.92534 -1.31733,-0.70933 -2.888,-0.70933 -1.57066,0 -2.888,0.70933 -1.31733,0.65867 -2.28,1.92534 -0.912,1.26666 -1.41866,3.04 -0.50667,1.72266 -0.50667,3.85066 z"
         style="font-style:normal;font-variant:normal;font-weight:normal;font-stretch:normal;font-size:47.5px;font-family:'Source Sans Pro';-inkscape-font-specification:'Source Sans Pro';fill:#000000;fill-opacity:1;stroke-width:1.06666672px"
         id="path4183"
         inkscape:connector-curvature="0" />
      <path
         d="m 617.97237,269.95645 h 3.44534 l 0.35466,3.54666 h 0.152 q 1.77334,-1.77333 3.69867,-2.93866 1.976,-1.216 4.56,-1.216 3.90133,0 5.67467,2.432 1.824,2.432 1.824,7.19466 v 15.60534 h -4.15467 v -15.048 q 0,-3.496 -1.11467,-5.016 -1.11466,-1.57067 -3.54666,-1.57067 -1.92534,0 -3.39467,0.96267 -1.46933,0.96266 -3.344,2.83733 v 17.83467 h -4.15467 z"
         style="font-style:normal;font-variant:normal;font-weight:normal;font-stretch:normal;font-size:47.5px;font-family:'Source Sans Pro';-inkscape-font-specification:'Source Sans Pro';fill:#000000;fill-opacity:1;stroke-width:1.06666672px"
         id="path4185"
         inkscape:connector-curvature="0" />
      <path
         d="m 644.0087,301.36978 q 0.40534,0.10133 0.912,0.20267 0.50667,0.152 0.96267,0.152 2.128,0 3.44533,-1.52 1.368,-1.46934 2.128,-3.74934 l 0.55734,-1.824 -9.88,-24.67466 h 4.30666 l 5.016,13.62933 q 0.55734,1.62133 1.16534,3.44533 0.65866,1.77334 1.216,3.496 h 0.20266 q 0.55734,-1.672 1.064,-3.496 0.50667,-1.824 1.01334,-3.44533 l 4.408,-13.62933 h 4.05333 l -9.272,26.65066 q -0.65867,1.824 -1.46933,3.39467 -0.81067,1.57067 -1.92534,2.68533 -1.11466,1.16534 -2.53333,1.824 -1.41867,0.65867 -3.29333,0.65867 -0.86134,0 -1.57067,-0.152 -0.70933,-0.10133 -1.31733,-0.35467 z"
         style="font-style:normal;font-variant:normal;font-weight:normal;font-stretch:normal;font-size:47.5px;font-family:'Source Sans Pro';-inkscape-font-specification:'Source Sans Pro';fill:#000000;fill-opacity:1;stroke-width:1.06666672px"
         id="path4187"
         inkscape:connector-curvature="0" />
      <path
         d="m 669.33175,269.95645 h 3.44534 l 0.35466,3.54666 h 0.152 q 1.62134,-1.77333 3.496,-2.93866 1.92534,-1.216 4.15467,-1.216 2.83733,0 4.408,1.26666 1.62133,1.216 2.38133,3.44534 1.92534,-2.128 3.85067,-3.39467 1.976,-1.31733 4.256,-1.31733 3.8,0 5.624,2.432 1.87467,2.432 1.87467,7.19466 v 15.60534 h -4.15467 v -15.048 q 0,-3.496 -1.11467,-5.016 -1.11466,-1.57067 -3.44533,-1.57067 -2.78667,0 -6.18133,3.8 v 17.83467 h -4.15467 v -15.048 q 0,-3.496 -1.11467,-5.016 -1.11466,-1.57067 -3.496,-1.57067 -2.78666,0 -6.18133,3.8 v 17.83467 h -4.15467 z"
         style="font-style:normal;font-variant:normal;font-weight:normal;font-stretch:normal;font-size:47.5px;font-family:'Source Sans Pro';-inkscape-font-specification:'Source Sans Pro';fill:#000000;fill-opacity:1;stroke-width:1.06666672px"
         id="path4189"
         inkscape:connector-curvature="0" />
      <path
         d="m 709.46608,282.31911 q 0,-3.09066 0.912,-5.472 0.96267,-2.432 2.53333,-4.104 1.57067,-1.672 3.59734,-2.53333 2.07733,-0.86133 4.35733,-0.86133 2.28,0 4.30667,0.86133 2.07733,0.86133 3.648,2.53333 1.57066,1.672 2.48266,4.104 0.96267,2.38134 0.96267,5.472 0,3.04 -0.96267,5.472 -0.912,2.38134 -2.48266,4.05334 -1.57067,1.62133 -3.648,2.48266 -2.02667,0.86134 -4.30667,0.86134 -2.28,0 -4.35733,-0.86134 -2.02667,-0.86133 -3.59734,-2.48266 -1.57066,-1.672 -2.53333,-4.05334 -0.912,-2.432 -0.912,-5.472 z m 4.30667,0 q 0,2.128 0.50666,3.85067 0.50667,1.72267 1.41867,2.98933 0.96267,1.216 2.28,1.92534 1.31733,0.65866 2.888,0.65866 1.57067,0 2.888,-0.65866 1.31733,-0.70934 2.22933,-1.92534 0.96267,-1.26666 1.46934,-2.98933 0.50666,-1.72267 0.50666,-3.85067 0,-2.128 -0.50666,-3.85066 -0.50667,-1.77334 -1.46934,-3.04 -0.912,-1.26667 -2.22933,-1.92534 -1.31733,-0.70933 -2.888,-0.70933 -1.57067,0 -2.888,0.70933 -1.31733,0.65867 -2.28,1.92534 -0.912,1.26666 -1.41867,3.04 -0.50666,1.72266 -0.50666,3.85066 z"
         style="font-style:normal;font-variant:normal;font-weight:normal;font-stretch:normal;font-size:47.5px;font-family:'Source Sans Pro';-inkscape-font-specification:'Source Sans Pro';fill:#000000;fill-opacity:1;stroke-width:1.06666672px"
         id="path4191"
         inkscape:connector-curvature="0" />
      <path
         d="m 738.44583,269.95645 h 4.20534 v 15.048 q 0,3.496 1.064,5.06666 1.11466,1.52 3.54666,1.52 1.92534,0 3.39467,-0.96266 1.46933,-1.01334 3.24267,-3.192 v -17.48 h 4.15466 v 24.624 h -3.44533 l -0.35467,-3.85067 h -0.152 q -1.72266,2.02667 -3.648,3.24267 -1.87466,1.216 -4.45866,1.216 -3.952,0 -5.776,-2.432 -1.77334,-2.432 -1.77334,-7.19467 z"
         style="font-style:normal;font-variant:normal;font-weight:normal;font-stretch:normal;font-size:47.5px;font-family:'Source Sans Pro';-inkscape-font-specification:'Source Sans Pro';fill:#000000;fill-opacity:1;stroke-width:1.06666672px"
         id="path4193"
         inkscape:connector-curvature="0" />
      <path
         d="m 765.75121,289.00711 q 1.62133,1.31734 3.29333,2.128 1.72267,0.81067 3.952,0.81067 2.432,0 3.648,-1.11467 1.216,-1.11466 1.216,-2.736 0,-0.96266 -0.50666,-1.672 -0.50667,-0.70933 -1.31734,-1.216 -0.76,-0.55733 -1.77333,-0.96266 -1.01333,-0.40534 -2.02667,-0.81067 -1.31733,-0.456 -2.63466,-1.01333 -1.31734,-0.608 -2.38134,-1.41867 -1.01333,-0.86133 -1.672,-1.976 -0.65866,-1.11467 -0.65866,-2.68533 0,-1.46934 0.55733,-2.736 0.608,-1.31734 1.672,-2.22934 1.11467,-0.96266 2.68533,-1.46933 1.57067,-0.55733 3.54667,-0.55733 2.33067,0 4.256,0.81066 1.976,0.81067 3.39467,1.976 l -1.976,2.63467 q -1.26667,-0.96267 -2.63467,-1.57067 -1.368,-0.608 -2.98933,-0.608 -2.33067,0 -3.44534,1.064 -1.064,1.064 -1.064,2.48267 0,0.86133 0.456,1.52 0.456,0.608 1.216,1.11467 0.76,0.456 1.72267,0.86133 1.01333,0.35467 2.07733,0.76 1.31734,0.50667 2.63467,1.064 1.368,0.55733 2.432,1.41867 1.064,0.81066 1.72267,2.02666 0.70933,1.216 0.70933,2.93867 0,1.52 -0.608,2.83733 -0.55733,1.31734 -1.72267,2.33067 -1.11466,1.01333 -2.83733,1.57067 -1.672,0.608 -3.85067,0.608 -2.63466,0 -5.016,-0.96267 -2.38133,-0.96267 -4.15466,-2.432 z"
         style="font-style:normal;font-variant:normal;font-weight:normal;font-stretch:normal;font-size:47.5px;font-family:'Source Sans Pro';-inkscape-font-specification:'Source Sans Pro';fill:#000000;fill-opacity:1;stroke-width:1.06666672px"
         id="path4195"
         inkscape:connector-curvature="0" />
      <path
         d="m 797.21996,289.00711 q 1.62133,1.31734 3.29333,2.128 1.72267,0.81067 3.952,0.81067 2.432,0 3.648,-1.11467 1.216,-1.11466 1.216,-2.736 0,-0.96266 -0.50667,-1.672 -0.50666,-0.70933 -1.31733,-1.216 -0.76,-0.55733 -1.77333,-0.96266 -1.01334,-0.40534 -2.02667,-0.81067 -1.31733,-0.456 -2.63467,-1.01333 -1.31733,-0.608 -2.38133,-1.41867 -1.01333,-0.86133 -1.672,-1.976 -0.65867,-1.11467 -0.65867,-2.68533 0,-1.46934 0.55734,-2.736 0.608,-1.31734 1.672,-2.22934 1.11466,-0.96266 2.68533,-1.46933 1.57067,-0.55733 3.54667,-0.55733 2.33066,0 4.256,0.81066 1.976,0.81067 3.39466,1.976 l -1.976,2.63467 q -1.26666,-0.96267 -2.63466,-1.57067 -1.368,-0.608 -2.98934,-0.608 -2.33066,0 -3.44533,1.064 -1.064,1.064 -1.064,2.48267 0,0.86133 0.456,1.52 0.456,0.608 1.216,1.11467 0.76,0.456 1.72267,0.86133 1.01333,0.35467 2.07733,0.76 1.31733,0.50667 2.63467,1.064 1.368,0.55733 2.432,1.41867 1.064,0.81066 1.72266,2.02666 0.70934,1.216 0.70934,2.93867 0,1.52 -0.608,2.83733 -0.55734,1.31734 -1.72267,2.33067 -1.11467,1.01333 -2.83733,1.57067 -1.672,0.608 -3.85067,0.608 -2.63467,0 -5.016,-0.96267 -2.38133,-0.96267 -4.15467,-2.432 z"
         style="font-style:normal;font-variant:normal;font-weight:normal;font-stretch:normal;font-size:47.5px;font-family:'Source Sans Pro';-inkscape-font-specification:'Source Sans Pro';fill:#000000;fill-opacity:1;stroke-width:1.06666672px"
         id="path4197"
         inkscape:connector-curvature="0" />
      <path
         d="m 817.33067,282.31911 q 0,-3.09066 0.912,-5.472 0.96266,-2.432 2.53333,-4.104 1.57067,-1.672 3.59733,-2.53333 2.07734,-0.86133 4.35734,-0.86133 2.28,0 4.30666,0.86133 2.07734,0.86133 3.648,2.53333 1.57067,1.672 2.48267,4.104 0.96267,2.38134 0.96267,5.472 0,3.04 -0.96267,5.472 -0.912,2.38134 -2.48267,4.05334 -1.57066,1.62133 -3.648,2.48266 -2.02666,0.86134 -4.30666,0.86134 -2.28,0 -4.35734,-0.86134 -2.02666,-0.86133 -3.59733,-2.48266 -1.57067,-1.672 -2.53333,-4.05334 -0.912,-2.432 -0.912,-5.472 z m 4.30666,0 q 0,2.128 0.50667,3.85067 0.50667,1.72267 1.41867,2.98933 0.96266,1.216 2.28,1.92534 1.31733,0.65866 2.888,0.65866 1.57066,0 2.888,-0.65866 1.31733,-0.70934 2.22933,-1.92534 0.96267,-1.26666 1.46933,-2.98933 0.50667,-1.72267 0.50667,-3.85067 0,-2.128 -0.50667,-3.85066 -0.50666,-1.77334 -1.46933,-3.04 -0.912,-1.26667 -2.22933,-1.92534 -1.31734,-0.70933 -2.888,-0.70933 -1.57067,0 -2.888,0.70933 -1.31734,0.65867 -2.28,1.92534 -0.912,1.26666 -1.41867,3.04 -0.50667,1.72266 -0.50667,3.85066 z"
         style="font-style:normal;font-variant:normal;font-weight:normal;font-stretch:normal;font-size:47.5px;font-family:'Source Sans Pro';-inkscape-font-specification:'Source Sans Pro';fill:#000000;fill-opacity:1;stroke-width:1.06666672px"
         id="path4199"
         inkscape:connector-curvature="0" />
      <path
         d="m 844.84109,282.31911 q 0,-3.09066 0.96266,-5.472 0.96267,-2.432 2.584,-4.104 1.62134,-1.672 3.74934,-2.53333 2.17866,-0.86133 4.56,-0.86133 2.432,0 4.15466,0.912 1.77334,0.86133 3.04,2.02666 l -2.07733,2.68534 q -1.11467,-0.96267 -2.33067,-1.57067 -1.16533,-0.608 -2.63466,-0.608 -1.672,0 -3.09067,0.70933 -1.41867,0.65867 -2.432,1.92534 -1.01333,1.26666 -1.62133,3.04 -0.55734,1.72266 -0.55734,3.85066 0,2.128 0.55734,3.85067 0.55733,1.72267 1.52,2.98933 1.01333,1.216 2.432,1.92534 1.41866,0.65866 3.09066,0.65866 1.77334,0 3.192,-0.70933 1.46934,-0.76 2.584,-1.77333 l 1.87467,2.736 q -1.672,1.46933 -3.74933,2.33066 -2.02667,0.86134 -4.256,0.86134 -2.432,0 -4.56,-0.86134 -2.128,-0.86133 -3.69867,-2.48266 -1.52,-1.672 -2.432,-4.05334 -0.86133,-2.432 -0.86133,-5.472 z"
         style="font-style:normal;font-variant:normal;font-weight:normal;font-stretch:normal;font-size:47.5px;font-family:'Source Sans Pro';-inkscape-font-specification:'Source Sans Pro';fill:#000000;fill-opacity:1;stroke-width:1.06666672px"
         id="path4201"
         inkscape:connector-curvature="0" />
      <path
         d="m 871.85038,264.88978 q -1.216,0 -2.07733,-0.76 -0.81067,-0.76 -0.81067,-1.92533 0,-1.216 0.81067,-1.92534 0.86133,-0.76 2.07733,-0.76 1.216,0 2.02667,0.76 0.86133,0.70934 0.86133,1.92534 0,1.16533 -0.86133,1.92533 -0.81067,0.76 -2.02667,0.76 z m -2.128,5.06667 h 4.15467 v 24.624 h -4.15467 z"
         style="font-style:normal;font-variant:normal;font-weight:normal;font-stretch:normal;font-size:47.5px;font-family:'Source Sans Pro';-inkscape-font-specification:'Source Sans Pro';fill:#000000;fill-opacity:1;stroke-width:1.06666672px"
         id="path4203"
         inkscape:connector-curvature="0" />
      <path
         d="m 880.97513,288.19645 q 0,-4.05334 3.59733,-6.18134 3.648,-2.17866 11.552,-3.04 0,-1.16533 -0.25333,-2.28 -0.20267,-1.11466 -0.81067,-1.976 -0.55733,-0.86133 -1.52,-1.368 -0.96267,-0.55733 -2.48267,-0.55733 -2.17866,0 -4.05333,0.81067 -1.824,0.81066 -3.29333,1.824 l -1.672,-2.888 q 1.72266,-1.11467 4.20533,-2.128 2.48267,-1.064 5.472,-1.064 4.50933,0 6.536,2.78666 2.02667,2.736 2.02667,7.34667 v 15.09867 h -3.44534 l -0.35466,-2.93867 h -0.10134 q -1.77333,1.46933 -3.85066,2.53333 -2.02667,1.01334 -4.30667,1.01334 -3.14133,0 -5.21867,-1.824 -2.02666,-1.824 -2.02666,-5.168 z m 4.104,-0.304 q 0,2.128 1.216,3.04 1.26666,0.912 3.09066,0.912 1.77334,0 3.344,-0.81067 1.62134,-0.86133 3.39467,-2.48267 v -6.84 q -3.09067,0.40534 -5.21867,0.96267 -2.128,0.55733 -3.44533,1.31733 -1.26667,0.76 -1.824,1.77334 -0.55733,0.96266 -0.55733,2.128 z"
         style="font-style:normal;font-variant:normal;font-weight:normal;font-stretch:normal;font-size:47.5px;font-family:'Source Sans Pro';-inkscape-font-specification:'Source Sans Pro';fill:#000000;fill-opacity:1;stroke-width:1.06666672px"
         id="path4205"
         inkscape:connector-curvature="0" />
      <path
         d="m 908.11821,258.50578 h 4.15466 v 31.41333 q 0,1.01334 0.35467,1.41867 0.35467,0.40533 0.81067,0.40533 0.20266,0 0.35466,0 0.20267,0 0.55734,-0.10133 l 0.55733,3.14133 q -0.40533,0.20267 -0.96267,0.304 -0.55733,0.10134 -1.41866,0.10134 -2.38134,0 -3.39467,-1.41867 -1.01333,-1.41867 -1.01333,-4.15467 z"
         style="font-style:normal;font-variant:normal;font-weight:normal;font-stretch:normal;font-size:47.5px;font-family:'Source Sans Pro';-inkscape-font-specification:'Source Sans Pro';fill:#000000;fill-opacity:1;stroke-width:1.06666672px"
         id="path4207"
         inkscape:connector-curvature="0" />
      <path
         d="m 931.27445,269.95645 h 3.44534 l 0.35466,3.54666 h 0.152 q 1.77334,-1.77333 3.69867,-2.93866 1.976,-1.216 4.56,-1.216 3.90133,0 5.67467,2.432 1.824,2.432 1.824,7.19466 v 15.60534 h -4.15467 v -15.048 q 0,-3.496 -1.11467,-5.016 -1.11466,-1.57067 -3.54666,-1.57067 -1.92534,0 -3.39467,0.96267 -1.46933,0.96266 -3.344,2.83733 v 17.83467 h -4.15467 z"
         style="font-style:normal;font-variant:normal;font-weight:normal;font-stretch:normal;font-size:47.5px;font-family:'Source Sans Pro';-inkscape-font-specification:'Source Sans Pro';fill:#000000;fill-opacity:1;stroke-width:1.06666672px"
         id="path4209"
         inkscape:connector-curvature="0" />
      <path
         d="m 957.15879,282.31911 q 0,-3.04 0.912,-5.42133 0.96267,-2.432 2.48267,-4.104 1.57067,-1.672 3.54667,-2.53333 1.976,-0.912 4.104,-0.912 2.33066,0 4.15466,0.81066 1.87467,0.81067 3.09067,2.33067 1.26667,1.52 1.92533,3.648 0.65867,2.128 0.65867,4.76267 0,1.368 -0.152,2.28 h -16.61867 q 0.25334,4.00266 2.432,6.33333 2.22934,2.33067 5.776,2.33067 1.77334,0 3.24267,-0.50667 1.52,-0.55733 2.888,-1.41867 l 1.46933,2.736 q -1.62133,1.01334 -3.59733,1.77334 -1.976,0.76 -4.50933,0.76 -2.48267,0 -4.66134,-0.86134 -2.128,-0.912 -3.74933,-2.53333 -1.57067,-1.672 -2.48267,-4.05333 -0.912,-2.38134 -0.912,-5.42134 z m 17.22667,-1.87466 q 0,-3.8 -1.62133,-5.776 -1.57067,-2.02667 -4.45867,-2.02667 -1.31733,0 -2.53333,0.55733 -1.16534,0.50667 -2.128,1.52 -0.96267,0.96267 -1.62134,2.432 -0.608,1.41867 -0.81066,3.29334 z"
         style="font-style:normal;font-variant:normal;font-weight:normal;font-stretch:normal;font-size:47.5px;font-family:'Source Sans Pro';-inkscape-font-specification:'Source Sans Pro';fill:#000000;fill-opacity:1;stroke-width:1.06666672px"
         id="path4211"
         inkscape:connector-curvature="0" />
      <path
         d="m 984.13484,273.35111 h -3.648 v -3.14133 l 3.85066,-0.25333 0.50667,-6.89067 h 3.496 v 6.89067 h 6.63733 v 3.39466 h -6.63733 v 13.68 q 0,2.28 0.81067,3.54667 0.86133,1.216 2.98933,1.216 0.65867,0 1.41867,-0.20267 0.76,-0.20266 1.368,-0.456 l 0.81066,3.14134 q -1.01333,0.35466 -2.22933,0.608 -1.16533,0.304 -2.33067,0.304 -1.976,0 -3.344,-0.608 -1.31733,-0.608 -2.17866,-1.672 -0.81067,-1.064 -1.16534,-2.584 -0.35466,-1.52 -0.35466,-3.344 z"
         style="font-style:normal;font-variant:normal;font-weight:normal;font-stretch:normal;font-size:47.5px;font-family:'Source Sans Pro';-inkscape-font-specification:'Source Sans Pro';fill:#000000;fill-opacity:1;stroke-width:1.06666672px"
         id="path4213"
         inkscape:connector-curvature="0" />
      <path
         d="m 997.60662,269.95645 h 4.25598 l 3.648,14.23733 q 0.4054,1.77333 0.76,3.44533 0.3547,1.672 0.7094,3.39467 h 0.2026 q 0.4054,-1.72267 0.8107,-3.39467 0.4053,-1.72266 0.8613,-3.44533 l 3.8,-14.23733 h 4.0534 l 3.8506,14.23733 q 0.456,1.77333 0.8614,3.44533 0.456,1.672 0.8613,3.39467 h 0.2027 q 0.4053,-1.72267 0.76,-3.39467 0.3546,-1.672 0.76,-3.44533 l 3.5973,-14.23733 h 3.952 l -6.5867,24.624 H 1019.9 l -3.5467,-13.224 q -0.456,-1.77334 -0.8613,-3.496 -0.3547,-1.72267 -0.8107,-3.59734 h -0.2027 q -0.4053,1.87467 -0.8106,3.648 -0.4054,1.72267 -0.912,3.496 l -3.4454,13.17334 h -4.864 z"
         style="font-style:normal;font-variant:normal;font-weight:normal;font-stretch:normal;font-size:47.5px;font-family:'Source Sans Pro';-inkscape-font-specification:'Source Sans Pro';fill:#000000;fill-opacity:1;stroke-width:1.06666672px"
         id="path4215"
         inkscape:connector-curvature="0" />
      <path
         d="m 1034.94,282.31911 q 0,-3.09066 0.912,-5.472 0.9627,-2.432 2.5334,-4.104 1.5706,-1.672 3.5973,-2.53333 2.0773,-0.86133 4.3573,-0.86133 2.28,0 4.3067,0.86133 2.0773,0.86133 3.648,2.53333 1.5707,1.672 2.4827,4.104 0.9626,2.38134 0.9626,5.472 0,3.04 -0.9626,5.472 -0.912,2.38134 -2.4827,4.05334 -1.5707,1.62133 -3.648,2.48266 -2.0267,0.86134 -4.3067,0.86134 -2.28,0 -4.3573,-0.86134 -2.0267,-0.86133 -3.5973,-2.48266 -1.5707,-1.672 -2.5334,-4.05334 -0.912,-2.432 -0.912,-5.472 z m 4.3067,0 q 0,2.128 0.5067,3.85067 0.5066,1.72267 1.4186,2.98933 0.9627,1.216 2.28,1.92534 1.3174,0.65866 2.888,0.65866 1.5707,0 2.888,-0.65866 1.3174,-0.70934 2.2294,-1.92534 0.9626,-1.26666 1.4693,-2.98933 0.5067,-1.72267 0.5067,-3.85067 0,-2.128 -0.5067,-3.85066 -0.5067,-1.77334 -1.4693,-3.04 -0.912,-1.26667 -2.2294,-1.92534 -1.3173,-0.70933 -2.888,-0.70933 -1.5706,0 -2.888,0.70933 -1.3173,0.65867 -2.28,1.92534 -0.912,1.26666 -1.4186,3.04 -0.5067,1.72266 -0.5067,3.85066 z"
         style="font-style:normal;font-variant:normal;font-weight:normal;font-stretch:normal;font-size:47.5px;font-family:'Source Sans Pro';-inkscape-font-specification:'Source Sans Pro';fill:#000000;fill-opacity:1;stroke-width:1.06666672px"
         id="path4217"
         inkscape:connector-curvature="0" />
      <path
         d="m 1064.2745,269.95645 h 3.4453 l 0.3547,4.45866 h 0.152 q 1.2666,-2.33066 3.04,-3.69866 1.824,-1.368 3.952,-1.368 1.4693,0 2.6346,0.50666 l -0.8106,3.648 q -0.608,-0.20266 -1.1147,-0.304 -0.5067,-0.10133 -1.2667,-0.10133 -1.5706,0 -3.2933,1.26667 -1.672,1.26666 -2.9387,4.408 v 15.808 h -4.1546 z"
         style="font-style:normal;font-variant:normal;font-weight:normal;font-stretch:normal;font-size:47.5px;font-family:'Source Sans Pro';-inkscape-font-specification:'Source Sans Pro';fill:#000000;fill-opacity:1;stroke-width:1.06666672px"
         id="path4219"
         inkscape:connector-curvature="0" />
      <path
         d="m 1081.8891,258.50578 h 4.104 v 24.42133 h 0.152 l 10.488,-12.97066 h 4.6106 l -8.2586,9.88 9.3733,14.744 h -4.56 l -7.1947,-11.856 -4.6106,5.37066 v 6.48534 h -4.104 z"
         style="font-style:normal;font-variant:normal;font-weight:normal;font-stretch:normal;font-size:47.5px;font-family:'Source Sans Pro';-inkscape-font-specification:'Source Sans Pro';fill:#000000;fill-opacity:1;stroke-width:1.06666672px"
         id="path4221"
         inkscape:connector-curvature="0" />
      <path
         d="m 1109.0535,264.88978 q -1.216,0 -2.0773,-0.76 -0.8107,-0.76 -0.8107,-1.92533 0,-1.216 0.8107,-1.92534 0.8613,-0.76 2.0773,-0.76 1.216,0 2.0267,0.76 0.8613,0.70934 0.8613,1.92534 0,1.16533 -0.8613,1.92533 -0.8107,0.76 -2.0267,0.76 z m -2.128,5.06667 h 4.1547 v 24.624 h -4.1547 z"
         style="font-style:normal;font-variant:normal;font-weight:normal;font-stretch:normal;font-size:47.5px;font-family:'Source Sans Pro';-inkscape-font-specification:'Source Sans Pro';fill:#000000;fill-opacity:1;stroke-width:1.06666672px"
         id="path4223"
         inkscape:connector-curvature="0" />
      <path
         d="m 1119.3942,269.95645 h 3.4454 l 0.3546,3.54666 h 0.152 q 1.7734,-1.77333 3.6987,-2.93866 1.976,-1.216 4.56,-1.216 3.9013,0 5.6747,2.432 1.824,2.432 1.824,7.19466 v 15.60534 h -4.1547 v -15.048 q 0,-3.496 -1.1147,-5.016 -1.1146,-1.57067 -3.5466,-1.57067 -1.9254,0 -3.3947,0.96267 -1.4693,0.96266 -3.344,2.83733 v 17.83467 h -4.1547 z"
         style="font-style:normal;font-variant:normal;font-weight:normal;font-stretch:normal;font-size:47.5px;font-family:'Source Sans Pro';-inkscape-font-specification:'Source Sans Pro';fill:#000000;fill-opacity:1;stroke-width:1.06666672px"
         id="path4225"
         inkscape:connector-curvature="0" />
      <path
         d="m 1148.8759,298.73511 q 0,1.976 1.8747,3.14134 1.9253,1.16533 5.2693,1.16533 1.7734,0 3.192,-0.456 1.4694,-0.40533 2.4827,-1.11467 1.0133,-0.65866 1.5707,-1.57066 0.5573,-0.912 0.5573,-1.87467 0,-1.72267 -1.2667,-2.38133 -1.2666,-0.65867 -3.6986,-0.65867 h -4.256 q -0.7094,0 -1.5707,-0.10133 -0.8107,-0.0507 -1.6213,-0.304 -1.3174,0.96266 -1.9254,2.02666 -0.608,1.064 -0.608,2.128 z m -3.648,0.55734 q 0,-1.57067 0.9627,-2.98934 0.9627,-1.41866 2.6347,-2.584 v -0.20266 q -0.912,-0.55734 -1.5707,-1.52 -0.608,-1.01334 -0.608,-2.48267 0,-1.57067 0.8613,-2.736 0.8614,-1.16533 1.824,-1.824 v -0.20267 q -1.216,-1.01333 -2.2293,-2.68533 -0.9627,-1.72267 -0.9627,-3.952 0,-2.02667 0.7094,-3.648 0.76,-1.62133 2.0266,-2.736 1.2667,-1.16533 2.9387,-1.77333 1.7227,-0.608 3.5973,-0.608 1.0134,0 1.8747,0.20266 0.912,0.152 1.6213,0.40534 h 8.5627 v 3.192 h -5.0667 q 0.8614,0.86133 1.4187,2.17866 0.608,1.31734 0.608,2.888 0,1.976 -0.7093,3.59734 -0.7094,1.57066 -1.9254,2.68533 -1.216,1.064 -2.888,1.672 -1.6213,0.608 -3.496,0.608 -0.912,0 -1.8746,-0.20267 -0.9627,-0.25333 -1.824,-0.65866 -0.6587,0.55733 -1.1147,1.26666 -0.456,0.65867 -0.456,1.672 0,1.16534 0.912,1.92534 0.912,0.76 3.4453,0.76 h 4.7627 q 4.3067,0 6.4347,1.41866 2.1786,1.368 2.1786,4.45867 0,1.72267 -0.8613,3.24267 -0.8613,1.57066 -2.4827,2.736 -1.6213,1.16533 -3.952,1.824 -2.28,0.70933 -5.168,0.70933 -2.28,0 -4.1546,-0.456 -1.8747,-0.40533 -3.2427,-1.26667 -1.3173,-0.86133 -2.0773,-2.07733 -0.7094,-1.216 -0.7094,-2.83733 z m 10.184,-15.30134 q 1.064,0 1.976,-0.40533 0.9627,-0.40533 1.672,-1.16533 0.76,-0.76 1.1654,-1.824 0.4053,-1.11467 0.4053,-2.48267 0,-2.736 -1.52,-4.20533 -1.52,-1.52 -3.6987,-1.52 -2.1786,0 -3.6986,1.52 -1.52,1.46933 -1.52,4.20533 0,1.368 0.4053,2.48267 0.4053,1.064 1.1147,1.824 0.76,0.76 1.672,1.16533 0.9626,0.40533 2.0266,0.40533 z"
         style="font-style:normal;font-variant:normal;font-weight:normal;font-stretch:normal;font-size:47.5px;font-family:'Source Sans Pro';-inkscape-font-specification:'Source Sans Pro';fill:#000000;fill-opacity:1;stroke-width:1.06666672px"
         id="path4227"
         inkscape:connector-curvature="0" />
    </g>
  </g>
</svg>
