<?xml version="1.0" encoding="UTF-8" standalone="no"?>
<svg
   xmlns:dc="http://purl.org/dc/elements/1.1/"
   xmlns:cc="http://creativecommons.org/ns#"
   xmlns:rdf="http://www.w3.org/1999/02/22-rdf-syntax-ns#"
   xmlns:svg="http://www.w3.org/2000/svg"
   xmlns="http://www.w3.org/2000/svg"
   xmlns:xlink="http://www.w3.org/1999/xlink"
   xmlns:sodipodi="http://sodipodi.sourceforge.net/DTD/sodipodi-0.dtd"
   xmlns:inkscape="http://www.inkscape.org/namespaces/inkscape"
   width="315.79944"
   height="382.93732"
   id="svg3386"
   version="1.1"
   inkscape:version="0.91 r13725"
   sodipodi:docname="tokumeiLogo.svg"
   inkscape:export-filename="/home/kuko/Pictures/tokumeiLogo.png"
   inkscape:export-xdpi="90"
   inkscape:export-ydpi="90">
  <metadata
     id="metadata3396">
    <rdf:RDF>
      <cc:Work
         rdf:about="">
        <dc:format>image/svg+xml</dc:format>
        <dc:type
           rdf:resource="http://purl.org/dc/dcmitype/StillImage" />
        <dc:title></dc:title>
      </cc:Work>
    </rdf:RDF>
  </metadata>
  <sodipodi:namedview
     pagecolor="#ffffff"
     bordercolor="#666666"
     borderopacity="1"
     objecttolerance="10"
     gridtolerance="10"
     guidetolerance="10"
     inkscape:pageopacity="0"
     inkscape:pageshadow="2"
     inkscape:window-width="868"
     inkscape:window-height="665"
     id="namedview3394"
     showgrid="false"
     inkscape:zoom="0.25"
     inkscape:cx="580.54847"
     inkscape:cy="215.37375"
     inkscape:window-x="0"
     inkscape:window-y="263"
     inkscape:window-maximized="1"
     inkscape:current-layer="svg3386"
     fit-margin-top="0"
     fit-margin-left="0"
     fit-margin-right="0"
     fit-margin-bottom="0" />
  <defs
     id="defs3388">
    <marker
       id="se_marker_start_path10416"
       refY="50"
       refX="50"
       se_type="rightarrow"
       orient="auto"
       markerUnits="strokeWidth"
       markerWidth="5"
       viewBox="0 0 100 100"
       markerHeight="5">
      <path
         d="M 100,50 0,90 30,50 0,10 Z"
         id="path3391"
         inkscape:connector-curvature="0"
         style="stroke:#000000;stroke-width:10" />
    </marker>
    <linearGradient
       gradientUnits="userSpaceOnUse"
       gradientTransform="scale(1.1399348,0.87724319)"
       id="linearGradient3969"
       y2="42.8405"
       xlink:href="#linearGradient3941"
       x2="13.998286"
       y1="38.539715"
       x1="13.746157" />
    <linearGradient
       id="linearGradient3941">
      <stop
         id="stop3943"
         offset="0" />
      <stop
         id="stop3945"
         stop-opacity="0"
         offset="1" />
    </linearGradient>
    <linearGradient
       id="linearGradient9115"
       y2="0.55352998"
       xlink:href="#linearGradient3941"
       x2="0.5"
       y1="-0.030702"
       x1="0.46575001" />
    <linearGradient
       gradientUnits="userSpaceOnUse"
       gradientTransform="scale(1.1399188,0.8772555)"
       id="linearGradient4003"
       y2="39.654915"
       xlink:href="#linearGradient3941"
       x2="213.5267"
       y1="35.354115"
       x1="213.27464" />
    <linearGradient
       id="linearGradient9146"
       y2="0.55352998"
       xlink:href="#linearGradient3941"
       x2="0.5"
       y1="-0.030703001"
       x1="0.46575999" />
    <linearGradient
       inkscape:collect="always"
       xlink:href="#linearGradient3941"
       id="linearGradient9318"
       gradientUnits="userSpaceOnUse"
       gradientTransform="scale(1.1399188,0.8772555)"
       x1="213.27464"
       y1="35.354115"
       x2="213.5267"
       y2="39.654915" />
    <linearGradient
       inkscape:collect="always"
       xlink:href="#linearGradient3941"
       id="linearGradient9320"
       gradientUnits="userSpaceOnUse"
       gradientTransform="scale(1.1399188,0.8772555)"
       x1="213.27464"
       y1="35.354115"
       x2="213.5267"
       y2="39.654915" />
    <linearGradient
       inkscape:collect="always"
       xlink:href="#linearGradient3941"
       id="linearGradient9322"
       gradientUnits="userSpaceOnUse"
       gradientTransform="scale(1.1399188,0.8772555)"
       x1="213.27464"
       y1="35.354115"
       x2="213.5267"
       y2="39.654915" />
  </defs>
  <path
     style="fill:#000000;fill-opacity:1;fill-rule:evenodd;stroke:none;stroke-width:1.25;stroke-opacity:1;marker-start:url(#se_marker_start_path10416)"
     d="m 254.10497,3.3456494 c -2.35837,0.083827 -3.21819,1.5694782 -3.86719,5.4667969 -0.93413,5.0669997 -0.44397,5.3123087 -0.88672,13.7246087 -0.44278,8.413001 -0.97204,13.454438 -0.52929,24.523438 -0.9105,7.4154 -0.79932,10.897937 -2.57032,16.210938 -1.771,5.3131 -1.76935,6.640934 -3.09765,9.740234 -1.3282,3.09931 -2.65674,3.541265 -4.42774,0.884766 -1.77105,-2.656001 -1.32889,-11.954079 -0.44336,-22.580079 -0.8737,-10.761 -1.67309,-15.052793 -2.55859,-20.808593 -1.1562,-5.34983 -3.08679,-5.37486 -4.52539,-5.75586 -1.1679,-0.381 -2.89064,0.849494 -4.42774,4.871094 0.0867,5.2395 0.34375,8.105353 0.34375,15.189453 0,7.084 -0.78576,8.718384 -1.22851,18.458985 -0.4427,9.740899 -1.32874,10.182918 -1.77149,16.824218 -0.44275,6.6414 0.88485,10.627013 -0.44335,16.382813 -1.32831,5.756198 0.44239,6.641908 -3.09961,13.283198 -3.542,6.6412 -7.52539,13.2815 -7.52539,10.625 -1e-5,-2.6562 -6.1e-4,-7.08234 -0.44336,-10.18164 -0.4428,-3.0993 -3.09992,0.44172 -6.19922,3.54102 -3.0993,3.0993 -3.09814,6.19823 -4.86914,9.74023 -1.771,3.542 -0.88508,6.19903 -3.98438,14.61133 -3.0992,8.4124 -2.65795,8.85553 -5.31445,14.61133 -2.6564,5.7562 -6.6402,7.96972 -10.625,11.51172 -3.9847,3.542 -3.98542,4.42822 -6.19922,6.19921 -2.2139,1.77101 -6.64086,5.75635 -11.06836,7.52735 -4.4272,1.771 -7.08429,1.32795 -10.18359,2.65625 -3.0992,1.3282 -3.98388,6.6402 -9.29688,10.625 -5.3127,3.9848 -6.19879,4.42878 -10.18359,6.64258 -3.9852,2.2137 -6.19872,7.5266 -11.51172,8.41211 -5.31303,0.886 -1.32947,-5.31378 -0.88672,-11.95508 0.4428,-6.641 -2.21198,-8.85383 -4.42578,-11.95313 -2.2138,-3.099 -2.21477,-6.64173 -3.54297,-14.61132 -1.3283,-7.9695 -1.77098,-5.31347 -7.08398,-8.85547 -5.313,-3.5417 -1.7705,-7.52563 -5.3125,-11.95313 -3.542002,-4.428 2.6565,-10.18439 0,-15.05469 -2.657002,-4.87033 -9.740544,-3.09856 -12.839844,-0.88476 -3.0993,2.213 3.540881,-14.16967 -0.886719,-16.82617 -7.0842,1.771 -9.297844,-3.09961 -12.839844,-3.09961 -3.542,0 -4.426515,-5.75453 -3.541015,-11.953125 0.885,-6.19855 -12.398513,-3.098625 -11.070313,-6.640625 1.3282,-3.542 -2.656559,-4.871094 -5.755859,-4.871094 -3.0994,0 -4.427734,4.427735 -4.427734,4.427735 -10e-7,0 0.442875,-3.984675 -1.328126,-7.083985 -1.770999,-3.09931 -3.099359,-2.213065 -5.755859,-0.884765 -2.6566,1.328299 -6.197265,6.640624 -6.197265,6.640624 -10e-7,1e-6 1.77034,-21.252996 -0.44336,-23.466796 -2.2137,-2.2138 -3.5415,1.329653 -5.3125,5.314453 -1.7711,3.9847 -4.427734,10.625 -4.427734,10.625 0,0 1.328375,-28.779222 -1.328125,-30.107422 -2.6565,-1.3283 -5.313544,3.541809 -7.527344,8.412109 -2.2137,4.87 -0.884766,21.251953 -0.884766,21.251953 0,0 -5.314278,-21.694328 -6.642578,-25.236328 -1.3279002,-3.542 -7.9678406,-5.312015 -10.18164061,-3.541015 -2.21370399,1.771 3.09796571,21.251587 6.19726561,30.992187 3.0990001,9.741 12.840114,19.924314 10.183594,21.695314 -2.65652,1.771 -4.426591,1.77015 -2.212891,7.96875 2.214,6.199 11.509969,9.74199 24.792969,18.15429 13.2827,8.413 16.824528,21.69398 19.923828,27.89258 3.0993,6.198 1.771485,13.72614 1.771485,17.71094 0,3.985 9.740409,20.80883 8.412109,25.23633 -1.328,4.4275 -9.741028,4.87011 -14.611328,8.41211 -4.8699,3.542 -11.068109,11.06915 -13.72461,15.93945 -0.904104,1.65752 -1.132809,3.26364 -1.035156,4.85351 0.26072,0.0924 1.285028,0.44384 1.75,0.2461 3.393099,-1.44297 5.578125,-7.35156 5.578125,-7.35156 0,0 3.851748,-1.89726 4.964844,-3.375 0.645867,-0.85749 0.636719,-2.71094 0.636719,-2.71094 0,0 12.431089,-0.63511 15.30664,2.60937 3.453925,3.89674 -0.935546,16.55469 -0.935546,16.55469 0,0 -6.052389,2.05653 -8.609376,3.85742 -2.85966,2.01401 -6.892578,7.32227 -6.892578,7.32227 l -7.269531,-4.61133 -3.398437,4.60352 c -0.692572,4.01098 -1.487171,8.48343 -0.980469,12.53711 0.8856,7.0841 5.31225,11.06853 7.96875,9.74023 2.6565,-1.3282 1.328734,-3.98413 1.771484,-6.64063 0.442,-2.657 11.953125,-13.2832 11.953125,-13.2832 0,0 5.314513,1.77124 11.070313,4.42774 5.7562,2.6567 9.740718,6.64076 11.511719,11.06836 1.770999,4.42739 1.328199,6.19935 0,10.62695 -1.328,4.4272 -11.069329,9.29701 -14.611329,13.72461 -3.542,4.427 -3.9843,15.93847 -5.3125,19.48047 -1.3283,3.54205 -4.871328,2.21408 -9.298828,3.09961 -4.428,0.88545 -16.382312,-6.1e-4 -21.695312,-0.44336 -5.3127,-0.4428 -9.296625,2.65729 -11.953125,4.87109 l 0,-0.006 c -3.9848,3.9852 -2.213316,5.7564 1.771484,13.2832 3.9847,7.5269 2.212891,-4.42748 2.212891,-7.08398 0,-2.65655 2.657218,-0.88611 6.199219,-0.44336 3.541999,0.44275 9.298828,0.44336 9.298828,0.44336 0,0 -1.328735,2.2132 -1.771485,5.3125 -0.4428,3.0993 7.96966,10.1845 5.75586,7.9707 -2.2138,-2.2135 1.327875,-7.96979 3.984375,-10.18359 2.6565,-2.2138 7.084593,10e-4 7.527343,2.21484 0.4428,2.214 2.656191,13.28108 -3.099609,14.60938 -5.7558,1.32824 -9.298828,-0.88477 -9.298828,-0.88477 0,0 0.885559,2.6573 5.755859,4.8711 4.8705,2.2138 8.412344,-1.77162 12.839844,-6.19922 4.4276,-4.4279 1.330078,-7.96972 1.330078,-11.51172 0,-3.542 1.769531,-4.42774 1.769531,-4.42774 0,0 6.642388,-0.88525 15.054688,-2.65625 8.4124,-1.7709 12.397528,-8.41315 14.611328,-10.62695 2.2137,-2.21378 5.312076,-3.98333 9.296866,-1.76953 3.9844,2.213 -4.42626,15.93829 -6.197257,20.80859 -1.77105,4.87 -1.330078,16.38086 -1.330078,16.38086 0,0 -15.938468,4.8711 -19.480469,4.8711 -3.542,0 -4.870284,-0.88553 -7.083984,0 -2.2138,0.8854 -1.328125,5.3125 -1.328125,5.3125 0,0 -3.0988,-0.44148 -5.3125,0.88671 -2.2138,1.328 -4.871094,11.06738 -4.871094,14.60938 0,3.542 8.41211,3.54297 8.41211,3.54297 l -1.328125,-10.18359 c 0,-1e-5 4.871403,0.88607 7.970703,0.44335 3.099,-0.4428 10.181641,-3.09961 10.181641,-3.09961 -10e-7,0 -1.769357,6.19824 -3.097657,9.74024 -1.3283,3.5421 -6.199219,7.52734 -6.199219,7.52734 10e-7,0 7.083,-0.44367 10.625,-3.54297 3.5421,-3.0993 0.886294,-5.31151 4.871094,-8.85351 3.9844,-3.542 8.412542,-4.9e-4 10.18359,-1.77149 1.77105,-1.771 2.21289,-11.95507 2.21289,-11.95507 0,0 20.36676,0.88707 24.35156,-1.76954 3.9848,-2.65599 1.32788,-4.87016 3.98438,-14.16796 2.6562,-9.2982 3.98499,-0.88691 10.18359,7.52539 6.1987,8.4124 1.32776,2.21353 11.06836,2.65625 9.7406,0.4428 5.31355,-0.88397 7.52735,3.98632 2.21369,4.87027 2.2135,4.42713 8.4121,3.98438 6.199,-0.4428 3.54212,2.3e-4 11.51172,4.42773 7.9692,4.4276 5.7561,-0.885 10.1836,-5.3125 4.4275,-4.4275 2.65631,1.76984 8.41211,4.86915 5.7558,3.0993 3.98498,-3.1e-4 4.42773,-3.09961 0.4428,-3.09927 0.88427,0.44343 6.19727,-0.88477 5.313,-1.3283 1.32917,-2.65729 3.54297,-4.87109 2.2137,-2.2137 3.54132,1.77131 6.64062,3.09961 3.0992,1.3282 3.98468,-3.98445 7.08398,-2.65625 3.0994,1.3283 6.64125,0.44287 12.83985,-1.32813 6.1986,-1.7709 5.75634,-3.54125 7.52734,-7.96875 1.77103,-4.4276 0.88477,-6.20026 0.88477,-8.41406 0,-2.2137 4.42878,0.44312 6.64258,-3.98438 2.2138,-4.4277 -3.5428,-7.96906 -4.8711,-11.06836 -1.3282,-3.0993 -2.65575,-6.19952 -7.96875,-9.29882 -5.313,-3.0993 -7.52771,-4.42592 -16.38281,-8.85352 -8.8554,-4.4275 -9.29694,-5.31364 -15.05274,-7.52734 -5.7554,-2.2138 -5.75696,-5.75617 -13.72656,-8.85547 -7.9694,-3.0993 -8.85448,-5.75617 -12.39648,-8.85547 -3.54205,-3.1 -3.54266,-5.75522 -0.44336,-16.82422 3.0989,-11.069 6.19928,-0.44378 11.95508,3.54102 5.7558,3.9847 6.19914,0.44312 7.52734,-3.98438 1.3283,-4.4275 3.98388,-0.44275 9.29688,0 5.313,0.4427 3.9846,-1.77002 8.4121,-3.54101 4.4275,-1.771 1.7705,-4.42847 5.3125,-3.54297 3.54201,0.8855 5.31311,-0.44311 5.75586,-3.09961 0.4428,-2.6566 3.09967,-4.42617 8.85547,-6.19727 5.7562,-1.77095 5.75592,-0.44336 11.51172,-0.44336 5.7558,0 6.64233,-1.32721 9.29883,-3.54101 2.6565,-2.2137 3.09918,-6.64251 7.08398,-7.97071 3.9845,-1.3282 7.52563,-5.7547 11.95313,-10.625 4.4276,-4.8702 5.31372,-5.31402 6.19922,-9.29883 0.8855,-3.984 3.98412,-11.51177 6.64062,-17.26757 2.65645,-5.7557 2.2151,-9.7395 -0.4414,-10.625 -2.65655,-0.8855 -3.5434,-5.75495 0.4414,-7.96875 3.9845,-2.214 7.97028,-8.41388 11.95508,-16.82618 3.98475,-8.412 2.65549,-6.64159 3.54102,-10.18359 0.8856,-3.5421 0.44384,-3.09923 2.21484,-7.08398 1.771,-3.98475 -0.88583,-2.65674 -3.09961,-4.42774 -2.21378,-1.771 -1.77148,-1.32721 -1.77148,-3.54101 0,-2.2138 2.21381,-1.77058 5.75586,-3.98438 3.54205,-2.2138 1.77131,-2.65729 3.09961,-4.87109 1.3283,-2.2138 -0.44257,-4.42693 -1.32813,-6.64063 -0.8855,-2.2138 -0.44336,-3.98552 -0.44336,-6.19922 0,-2.2138 1.7711,-5.31298 0,-7.08398 -1.771,-1.77095 -3.54206,7e-5 -5.75586,-1.32812 -2.2138,-1.3283 1.7721,-3.54206 2.21485,-5.755861 0.4427,-2.21376 -2.2146,-1.771485 -4.8711,-1.771485 -2.6565,0 -0.88428,-3.097965 0.88672,-6.197265 1.771,-3.0993 3.54143,-1.329403 6.64063,-7.970704 3.0993,-6.6413 -0.88477,-3.984374 -0.88477,-3.984374 0,-1e-6 -2.21423,-1.770575 -1.77148,-3.984376 0.4428,-2.213799 0.88469,-2.215038 2.21289,-6.642578 1.3282,-4.42754 0.88501,-4.86914 -1.77149,-4.86914 -2.6565,0 -6.19719,-0.44245 -7.52539,-2.65625 -1.3283,-2.2138 1.76984,-3.543203 4.86914,-7.970703 3.0993,-4.4276 2.65633,-3.984685 1.32813,-7.083985 -1.3283,-3.0993 -4.42658,0.88581 -9.29688,3.09961 -4.8703,2.2137 -2.65729,2.657218 -4.87109,6.199218 -2.2138,3.542 -2.65527,3.098266 -6.19727,3.541016 -3.542,0.4428 -0.88697,-1.771544 1.76953,-7.527344 2.65655,-5.7557 1.32861,-3.099184 3.09961,-7.083984 1.771,-3.9848 0.88568,-4.870109 -1.32812,-8.41211 -2.0784,-0.835599 -4.18123,1.058319 -6.64063,6.199219 -1.6476,2.5698 0.0498,0.772875 -4.42773,9.296875 -2.7182,3.111 -2.65639,4.870485 -7.08399,4.427735 0.9854,-1.9313 1.21821,-3.910835 3.09961,-9.740235 3.0993,-6.6409 2.65534,-9.297494 4.86914,-15.496094 2.2138,-6.1982 2.21477,-9.297593 3.54297,-15.496093 0.2457,-5.7926004 -0.97317,-7.4522751 -3.54297,-9.296875 -2.4344,0.1852999 -3.208,2.0044496 -6.75,9.53125 -1.5123,7.7972 -3.87621,10.392562 -4.76171,17.476562 -0.8855,7.084 -3.09936,12.397203 -5.75586,18.595703 -2.6565,6.1987 -2.656,9.29736 -5.3125,11.06836 -0.49136,-1.6121 0.29501,-5.534422 0.5039,-9.482422 0.88546,-3.542 1.26697,-7.784156 0.82422,-18.410156 -0.4427,-10.626 -0.44262,-10.183653 -1.32812,-15.939453 -0.8855,-5.756201 -1.32722,-12.3962347 -3.54102,-15.0527347 -0.71957,-0.1175062 -1.34443,-0.1736416 -1.88867,-0.1542969 z"
     id="path10416"
     inkscape:connector-curvature="0"
     sodipodi:nodetypes="scscsccccccsssssscssccsccccccccccccccscsscsccscccsccccscccsccscscccccccccccccscccccccccsscccssscccsccccccscccsccccscccscccsscscssccscccssccsccsccscsssccsccccsscscssssscssccsscccsscsccsccscccccccccscccsccs" />
  <g
     transform="matrix(0.25426564,-0.13547989,0.13547989,0.25426564,-1.1460728,247.81051)"
     style="stroke:none;stroke-opacity:1"
     id="layer1">
    <g
       style="fill:#ffffff;fill-opacity:1;stroke:none;stroke-width:0.021;stroke-opacity:1"
       id="g9070"
       transform="translate(-2.2974201,-1.2241301)">
      <g
         style="fill:#ffffff;fill-opacity:1;stroke:none;stroke-opacity:1"
         id="g9074" />
      <path
         style="fill:#ffffff;fill-opacity:1;stroke:none;stroke-opacity:1"
         inkscape:connector-curvature="0"
         id="path3959"
         d="m 217.35,50.784 c 0.15529,7.3321 -17.835,9.3426 -28.286,9.5014 -10.826,0.16451 -29.846,-1.3469 -29.88,-8.9425 -0.0345,-7.718 19.275,-9.2499 30.278,-9.2219 10.167,0.02577 27.737,1.5324 27.888,8.663 z" />
      <path
         style="fill:#000000;fill-opacity:1;stroke:none;stroke-opacity:1"
         inkscape:connector-curvature="0"
         id="path3961"
         d="m 217.35,50.784 c 0.15529,7.3321 -17.835,9.3426 -28.286,9.5014 -10.826,0.16451 -29.846,-1.3469 -29.88,-8.9425 -0.0345,-7.718 19.275,-9.2499 30.278,-9.2219 10.167,0.02577 27.737,1.5324 27.888,8.663 z" />
    </g>
    <g
       style="stroke:none;stroke-width:0.005;stroke-opacity:1"
       id="g9081">
      <path
         style="fill:#ffffff;stroke:none;stroke-opacity:1"
         inkscape:connector-curvature="0"
         id="path3987"
         d="m 239.21,34.291 c -0.0218,2.603 2.5714,3.3167 4.0782,3.3731 1.561,0.05842 4.3031,-0.47816 4.3081,-3.1747 0.006,-2.74 -2.779,-3.2838 -4.3654,-3.2739 -1.4658,0.0087 -3.9991,0.54403 -4.0209,3.0754 z" />
      <path
         style="fill:url(#linearGradient9318);stroke:none;stroke-opacity:1"
         inkscape:connector-curvature="0"
         id="path3989"
         d="m 239.21,34.291 c -0.0218,2.603 2.5714,3.3167 4.0782,3.3731 1.561,0.05842 4.3031,-0.47816 4.3081,-3.1747 0.006,-2.74 -2.779,-3.2838 -4.3654,-3.2739 -1.4658,0.0087 -3.9991,0.54403 -4.0209,3.0754 z" />
      <path
         style="fill:#ffffff;stroke:none;stroke-opacity:1"
         inkscape:connector-curvature="0"
         id="path3991"
         d="m 239.21,34.291 c -0.0218,2.603 2.5714,3.3167 4.0782,3.3731 1.561,0.05842 4.3031,-0.47816 4.3081,-3.1747 0.006,-2.74 -2.779,-3.2838 -4.3654,-3.2739 -1.4658,0.0087 -3.9991,0.54403 -4.0209,3.0754 z" />
      <path
         style="fill:url(#linearGradient9320);stroke:none;stroke-opacity:1"
         inkscape:connector-curvature="0"
         id="path3993"
         d="m 239.21,34.291 c -0.0218,2.603 2.5714,3.3167 4.0782,3.3731 1.561,0.05842 4.3031,-0.47816 4.3081,-3.1747 0.006,-2.74 -2.779,-3.2838 -4.3654,-3.2739 -1.4658,0.0087 -3.9991,0.54403 -4.0209,3.0754 z" />
      <path
         style="fill:#ffffff;stroke:none;stroke-opacity:1"
         inkscape:connector-curvature="0"
         id="path3995"
         d="m 239.21,34.291 c -0.0218,2.603 2.5714,3.3167 4.0782,3.3731 1.561,0.05842 4.3031,-0.47816 4.3081,-3.1747 0.006,-2.74 -2.779,-3.2838 -4.3654,-3.2739 -1.4658,0.0087 -3.9991,0.54403 -4.0209,3.0754 z" />
      <path
         style="fill:url(#linearGradient9322);stroke:none;stroke-opacity:1"
         inkscape:connector-curvature="0"
         id="path3997"
         d="m 239.21,34.291 c -0.0218,2.603 2.5714,3.3167 4.0782,3.3731 1.561,0.05842 4.3031,-0.47816 4.3081,-3.1747 0.006,-2.74 -2.779,-3.2838 -4.3654,-3.2739 -1.4658,0.0087 -3.9991,0.54403 -4.0209,3.0754 z" />
      <path
         style="fill:#ffffff;stroke:none;stroke-opacity:1"
         inkscape:connector-curvature="0"
         id="path3999"
         d="m 239.21,34.291 c -0.0218,2.603 2.5714,3.3167 4.0782,3.3731 1.561,0.05842 4.3031,-0.47816 4.3081,-3.1747 0.006,-2.74 -2.779,-3.2838 -4.3654,-3.2739 -1.4658,0.0087 -3.9991,0.54403 -4.0209,3.0754 z" />
      <path
         style="fill:#000000;fill-opacity:1;stroke:none;stroke-opacity:1"
         inkscape:connector-curvature="0"
         id="path4001"
         d="m 239.21,34.291 c -0.0218,2.603 2.5714,3.3167 4.0782,3.3731 1.561,0.05842 4.3031,-0.47816 4.3081,-3.1747 0.006,-2.74 -2.779,-3.2838 -4.3654,-3.2739 -1.4658,0.0087 -3.9991,0.54403 -4.0209,3.0754 z" />
    </g>
  </g>
</svg>
